<?xml version="1.0" encoding="utf-8"?>
<svg viewBox="0 0 500 500" xmlns="http://www.w3.org/2000/svg" xmlns:bx="https://boxy-svg.com">
  <g transform="matrix(0.010747, 0, 0, -0.007883, 5.064278, 399.050659)" fill="#000000" stroke="none" style="">
    <path d="M3390 12786 c-35 -14 -35 -14 -9 -20 14 -4 29 -6 35 -5 5 1 32 0 59 -1 l50 -2 -73 -19 c-114 -29 -187 -72 -278 -166 -89 -90 -139 -177 -174 -300 -24 -81 -24 -135 -5 -398 8 -110 14 -250 14 -311 -1 -65 3 -120 10 -132 19 -36 12 -61 -30 -102 -43 -42 -44 -60 -2 -60 l25 0 -23 -20 c-21 -17 -22 -21 -9 -30 8 -5 11 -10 5 -11 -5 -1 -14 -3 -20 -4 -62 -14 -78 -21 -91 -41 -22 -33 -40 -36 -135 -23 -84 11 -88 11 -195 -20 -60 -18 -136 -46 -169 -62 -155 -76 -380 -269 -528 -454 -44 -55 -187 -206 -318 -335 -224 -223 -359 -377 -437 -500 -19 -30 -50 -72 -69 -93 -18 -21 -44 -62 -58 -93 -81 -182 -209 -681 -245 -954 -36 -271 -68 -457 -91 -530 -22 -68 -34 -187 -45 -441 l-6 -147 34 -108 c46 -141 74 -275 78 -366 0 -5 11 -8 24 -8 22 0 26 -7 36 -56 13 -59 30 -75 62 -55 11 7 21 11 22 9 1 -2 7 -16 14 -32 12 -26 16 -28 50 -22 65 12 71 16 79 54 9 47 9 100 -1 293 -9 156 -8 166 25 292 9 35 13 38 42 35 31 -3 33 -6 60 -90 41 -128 99 -183 151 -145 18 13 17 17 -9 102 -14 48 -33 98 -40 109 -7 12 -21 48 -30 81 -20 69 -43 103 -136 200 -37 39 -72 83 -78 98 -37 98 12 332 165 777 34 102 77 237 94 300 38 141 82 282 104 335 32 75 70 117 185 203 64 47 148 109 186 138 39 28 151 123 251 210 100 88 195 167 211 176 l30 18 11 -58 c6 -31 18 -93 26 -136 9 -47 17 -168 20 -300 4 -162 10 -234 21 -271 20 -62 30 -226 29 -450 -1 -200 -29 -402 -71 -504 -23 -58 -35 -99 -72 -239 -5 -18 -25 -60 -45 -94 -48 -79 -72 -153 -87 -263 -28 -216 39 -567 155 -805 31 -64 59 -103 116 -161 77 -79 119 -106 230 -149 62 -25 69 -31 163 -150 208 -264 314 -450 381 -670 19 -63 53 -167 75 -230 53 -154 187 -645 205 -756 8 -49 20 -161 26 -249 6 -88 18 -226 26 -306 l15 -146 -39 -104 c-57 -151 -99 -282 -122 -384 -49 -212 -51 -240 -60 -900 -9 -691 -12 -755 -42 -755 -27 0 -33 -25 -17 -72 15 -47 6 -69 -37 -82 -16 -4 -56 -21 -89 -36 -33 -15 -88 -38 -122 -50 -35 -12 -68 -29 -74 -36 -6 -8 -18 -14 -25 -14 -8 0 -37 -11 -66 -25 -28 -14 -57 -25 -63 -25 -7 0 -18 -25 -25 -55 -10 -44 -11 -63 -1 -95 6 -22 16 -40 21 -40 6 0 10 -13 10 -29 0 -15 10 -41 22 -56 12 -15 22 -35 23 -44 3 -33 17 -61 30 -61 8 0 17 -15 21 -37 6 -35 47 -103 66 -111 5 -2 5 -8 2 -13 -9 -15 16 -69 32 -69 7 0 16 -16 19 -37 9 -50 25 -93 46 -121 10 -13 15 -30 12 -38 -8 -21 17 -115 33 -121 9 -3 13 -21 13 -53 -1 -34 5 -59 20 -84 13 -20 20 -40 16 -45 -7 -13 32 -91 46 -91 5 0 18 -20 29 -45 11 -25 27 -48 35 -52 9 -3 23 -23 32 -44 8 -22 21 -39 28 -39 15 0 38 -26 41 -47 3 -19 44 -63 58 -63 6 0 20 -14 31 -30 11 -16 23 -30 27 -30 3 0 27 -16 53 -35 58 -44 131 -63 174 -45 30 12 69 63 83 109 4 15 -4 74 -24 160 -29 123 -32 151 -32 296 l1 160 26 -3 c23 -2 27 2 37 39 11 40 10 57 -6 121 -3 15 -3 45 1 65 l7 38 19 -25 c52 -65 74 -80 172 -118 87 -34 114 -40 185 -41 53 -1 81 3 77 9 -3 5 -26 10 -50 10 l-44 0 -14 53 c-8 28 -18 72 -21 95 -8 51 -33 103 -73 151 -29 33 -31 34 -102 33 -40 -1 -81 -4 -91 -7 -21 -7 -40 20 -40 56 0 29 -36 87 -60 94 -30 10 -34 83 -11 250 11 83 27 227 36 320 28 302 51 423 199 1039 25 104 66 311 91 460 52 315 71 400 125 553 74 210 109 400 90 488 -17 78 -12 337 11 585 27 296 35 673 19 866 -27 327 -91 640 -197 969 -35 110 -67 220 -69 245 l-5 45 158 111 c296 209 602 394 652 394 17 0 18 -16 24 -222 7 -253 39 -639 112 -1368 21 -201 22 -190 -20 -190 -32 0 -35 -2 -35 -30 0 -17 9 -49 21 -71 24 -47 18 -58 -38 -78 -21 -7 -49 -24 -63 -36 -14 -13 -71 -53 -128 -89 -57 -35 -126 -86 -154 -113 -28 -26 -63 -60 -79 -75 -16 -14 -29 -36 -29 -48 0 -35 29 -92 50 -97 13 -4 20 -14 20 -30 0 -16 13 -37 34 -57 19 -17 36 -40 38 -51 2 -11 16 -26 31 -33 19 -9 27 -21 27 -38 0 -16 16 -40 45 -70 25 -24 45 -52 45 -62 1 -22 34 -62 53 -62 8 0 17 -13 21 -32 9 -44 54 -118 71 -118 8 0 15 -3 16 -7 0 -5 2 -19 3 -33 2 -31 53 -113 65 -105 11 6 21 -18 21 -51 0 -15 15 -39 40 -63 22 -21 40 -46 40 -55 0 -25 41 -76 61 -76 9 0 24 -15 33 -34 10 -21 30 -40 53 -51 21 -10 48 -30 61 -46 14 -17 33 -29 47 -29 13 0 36 -13 52 -29 31 -30 92 -66 100 -58 5 6 33 -8 75 -36 14 -10 47 -20 73 -22 25 -3 55 -10 67 -16 30 -16 128 -16 167 0 24 11 38 26 52 58 23 55 25 135 4 153 -19 16 -158 218 -178 257 -15 32 -12 60 10 85 11 12 12 21 4 37 -6 11 -11 37 -11 58 l1 38 27 -30 c70 -76 87 -66 20 12 -65 73 -72 90 -47 103 24 14 41 53 41 100 0 30 -8 42 -52 81 -30 28 -47 50 -41 54 18 10 13 47 -15 116 -21 51 -25 74 -20 114 8 67 -10 95 -62 95 l-37 0 -18 183 c-10 100 -26 265 -37 367 -34 324 -28 418 61 907 28 153 59 339 70 413 11 74 51 290 89 480 87 437 101 534 101 695 0 177 -27 275 -100 358 -93 105 -296 142 -541 97 -58 -10 -159 -26 -225 -36 -200 -27 -548 -119 -1005 -263 -36 -11 -69 -21 -73 -21 -12 0 -1 62 43 247 22 89 46 198 54 243 9 55 21 89 35 104 12 12 21 29 21 37 0 9 50 62 110 118 118 110 135 133 160 224 l16 58 59 -88 c103 -156 234 -275 413 -378 180 -103 326 -148 406 -125 49 13 99 59 116 105 6 17 16 155 23 308 13 326 5 445 -47 732 -33 186 -49 309 -62 490 -4 62 -16 121 -40 190 -18 55 -37 125 -42 155 -5 30 -19 89 -30 130 -12 41 -24 87 -26 101 -3 14 -23 43 -44 65 -22 21 -63 74 -91 116 -60 89 -66 94 -88 76 -13 -11 -18 -9 -31 10 -18 27 -34 28 -57 2 -13 -14 -16 -28 -11 -55 4 -19 5 -35 4 -35 -2 0 -21 22 -42 50 -32 42 -41 48 -57 40 -26 -14 -33 -52 -18 -97 6 -21 13 -62 14 -93 1 -44 12 -79 58 -175 67 -143 76 -188 52 -250 -18 -48 -35 -56 -72 -30 -11 8 -42 16 -67 17 -36 1 -52 -4 -71 -22 -14 -13 -25 -29 -25 -35 0 -7 25 -28 55 -46 31 -19 79 -49 108 -67 45 -29 58 -33 100 -28 61 7 81 -13 102 -106 39 -174 45 -578 9 -665 -9 -24 -20 -43 -24 -43 -4 0 -39 39 -78 87 -54 66 -77 105 -97 162 -53 150 -163 328 -237 384 -31 23 -160 94 -320 175 -44 22 -79 49 -104 80 -21 26 -60 68 -87 94 l-49 47 16 56 c9 30 20 55 24 55 10 0 101 -30 140 -46 18 -8 50 -14 70 -14 40 0 72 26 121 98 13 18 35 39 51 47 16 8 32 25 35 37 4 13 22 39 40 58 18 19 42 49 52 66 43 73 75 115 98 130 33 21 39 48 25 100 -11 39 -11 50 6 84 10 22 25 40 32 40 8 0 34 21 59 46 31 33 43 52 40 66 -3 11 8 61 24 111 16 51 32 112 36 137 6 50 41 141 57 152 8 5 7 14 -1 28 -7 11 -13 39 -13 62 -1 129 -148 377 -251 424 -42 19 -263 125 -291 140 -36 19 -268 19 -323 -1 -58 -21 -61 -20 -92 34 -15 27 -30 48 -34 45 -4 -2 -40 12 -79 33 -59 30 -85 37 -144 39 -44 2 -84 -2 -106 -10z m508 -11682 c28 -34 66 -124 90 -216 13 -47 5 -48 -74 -13 -31 14 -74 30 -96 36 -38 10 -119 74 -138 109 -5 10 -1 32 12 62 22 51 29 54 120 57 54 1 58 -1 86 -35z"/>
  </g>
  <g transform="matrix(0.010156, 0, 0, -0.007851, 126.721817, 186.010071)" fill="#000000" stroke="none" style="">
    <path d="M4980 12788 c-14 -5 -74 -16 -135 -24 -118 -15 -196 -37 -215 -59 -7 -8 -54 -35 -105 -59 -98 -46 -197 -109 -230 -146 -11 -12 -45 -38 -75 -57 -65 -41 -136 -107 -155 -144 -8 -14 -40 -57 -71 -95 -31 -38 -67 -86 -81 -107 -36 -58 -56 -150 -49 -227 8 -85 73 -558 87 -633 5 -31 14 -107 19 -169 5 -61 21 -171 36 -244 l26 -133 -17 -103 c-28 -176 -23 -167 -166 -316 -145 -151 -258 -295 -319 -406 -23 -41 -47 -80 -55 -86 -8 -7 -15 -18 -15 -24 0 -6 40 -51 89 -100 86 -86 90 -91 100 -150 10 -60 27 -252 34 -373 l3 -63 -69 0 c-80 0 -173 9 -877 85 -562 61 -757 84 -781 91 -9 3 -22 18 -29 34 -15 37 -74 90 -100 90 -23 0 -32 -14 -40 -60 l-6 -35 -89 2 c-99 2 -259 25 -343 49 -29 9 -68 28 -85 44 -30 25 -48 32 -134 47 -18 3 -38 11 -44 19 -17 21 -37 17 -55 -11 -13 -20 -24 -25 -60 -25 -30 0 -47 5 -56 18 -12 17 -100 52 -131 52 -8 0 -18 -11 -21 -25 -4 -14 -13 -25 -20 -25 -16 0 -46 27 -46 41 0 5 -27 9 -59 9 -38 0 -71 6 -91 18 -31 17 -31 17 -55 -12 l-23 -29 -132 7 c-73 4 -137 8 -143 9 -5 1 -23 -23 -38 -53 -16 -30 -49 -77 -74 -104 -25 -27 -45 -54 -45 -60 0 -5 -10 -20 -21 -32 -20 -21 -21 -27 -10 -71 7 -26 23 -70 37 -96 14 -27 28 -72 31 -100 11 -100 33 -112 226 -123 100 -6 119 -10 128 -25 5 -11 16 -19 24 -19 8 0 15 -4 15 -10 0 -5 8 -10 18 -10 27 0 42 -20 42 -57 0 -18 4 -33 9 -33 17 0 41 43 48 83 6 42 26 57 73 57 23 0 33 -6 39 -23 6 -14 31 -33 69 -50 35 -16 64 -37 67 -48 7 -21 20 -25 30 -9 4 6 -7 29 -24 51 -42 57 -33 69 48 69 63 0 69 -2 89 -30 12 -16 22 -33 22 -38 0 -34 87 -55 131 -32 30 17 24 46 -13 59 -17 6 -29 14 -26 17 3 3 48 16 100 29 52 12 112 32 134 43 88 44 131 38 204 -32 67 -65 215 -173 280 -206 93 -47 224 -74 433 -89 104 -8 123 -12 160 -36 72 -48 166 -127 173 -147 3 -10 10 -18 15 -18 15 0 83 -47 261 -182 209 -158 447 -317 548 -368 78 -39 299 -130 437 -180 70 -25 87 -40 78 -69 -13 -42 -87 -142 -192 -258 -77 -86 -125 -151 -162 -219 -30 -53 -88 -153 -131 -224 -88 -145 -131 -254 -161 -408 -13 -64 -32 -125 -47 -152 -14 -25 -110 -171 -213 -325 -103 -154 -235 -359 -294 -455 -58 -96 -118 -188 -133 -203 -15 -16 -57 -46 -94 -68 -40 -23 -88 -64 -122 -102 -36 -41 -78 -76 -116 -96 -81 -43 -157 -115 -236 -224 -127 -174 -255 -310 -408 -432 -107 -86 -220 -216 -262 -300 -70 -144 -23 -300 129 -424 112 -92 198 -117 348 -101 65 7 76 12 197 94 70 47 134 91 143 98 36 30 178 288 290 527 24 52 57 112 72 133 15 21 47 76 71 121 74 142 93 166 138 173 41 7 68 34 68 69 0 27 60 150 96 197 30 40 141 128 160 128 8 0 7 -17 -2 -58 -22 -92 -17 -405 11 -762 33 -418 47 -516 104 -759 74 -312 136 -493 300 -870 l71 -163 -21 -177 c-25 -215 -124 -1006 -144 -1150 -22 -152 -20 -168 13 -185 34 -17 131 -36 189 -36 80 0 114 25 246 185 14 17 28 27 32 23 11 -11 -45 -230 -67 -261 -11 -15 -29 -63 -39 -105 -11 -42 -34 -108 -53 -147 -85 -179 -81 -165 -78 -323 4 -178 15 -211 81 -250 l46 -27 206 0 205 0 75 37 c98 48 162 115 183 189 8 30 19 122 25 204 12 180 30 269 84 395 86 205 98 247 94 345 -2 79 -7 100 -40 174 -21 46 -36 90 -33 98 4 10 33 13 117 13 120 0 157 10 200 56 21 22 24 38 27 112 2 48 7 90 10 94 7 7 304 -17 329 -26 17 -7 22 -105 33 -598 6 -246 14 -458 19 -471 12 -30 29 -37 112 -47 99 -11 232 3 269 30 l30 21 0 543 0 543 233 121 c258 135 309 156 326 139 6 -6 11 -33 11 -59 0 -47 31 -408 50 -582 6 -57 15 -95 26 -107 23 -26 97 -48 199 -60 l89 -10 43 43 42 43 -14 135 c-15 141 -102 1079 -135 1450 -11 119 -44 479 -75 800 -95 1005 -114 1213 -117 1275 l-2 60 52 6 c76 10 80 13 87 66 17 138 31 210 90 448 108 437 127 568 145 1004 6 134 13 247 15 251 2 4 28 1 57 -8 36 -10 120 -16 259 -19 186 -5 214 -3 290 16 290 73 518 278 689 620 202 404 293 821 276 1266 -7 198 -16 266 -56 433 -17 68 -30 131 -30 140 0 10 65 71 151 142 83 69 178 154 211 189 55 59 60 67 54 99 -15 95 -171 258 -374 393 -160 105 -326 188 -577 289 -272 109 -288 118 -325 189 -47 88 -77 113 -152 123 -41 5 -85 21 -133 47 -85 47 -232 113 -330 148 -82 30 -146 37 -480 57 -512 30 -645 57 -733 147 -17 18 -39 52 -48 76 -17 43 -17 44 8 71 83 91 190 300 209 407 6 37 9 161 7 311 l-3 249 -32 73 c-61 142 -139 256 -240 353 -139 132 -184 166 -245 178 -28 7 -75 25 -103 41 -55 31 -84 36 -125 18z m-4444 -3497 c-7 -44 -31 -65 -58 -50 -28 15 -21 70 11 85 38 19 54 7 47 -35z m239 29 c29 0 37 -22 29 -78 l-7 -44 -71 7 c-94 9 -106 16 -106 66 0 48 22 61 89 54 24 -3 54 -5 66 -5z m288 -36 c22 -7 24 -76 1 -98 -16 -16 -21 -16 -139 3 l-40 6 4 45 c1 25 5 49 8 53 5 8 128 1 166 -9z m181 -30 c20 -19 21 -58 2 -73 -8 -7 -32 -11 -53 -9 -36 3 -38 4 -36 38 2 53 53 79 87 44z m-759 -279 c0 -40 0 -40 -40 -40 -33 0 -41 4 -43 21 -2 14 7 29 24 43 40 32 59 24 59 -24z m245 39 c32 -7 32 -7 26 -52 -3 -25 -7 -47 -9 -48 -1 -2 -40 0 -87 4 -81 7 -84 8 -91 35 -9 35 -3 54 19 60 27 7 107 8 142 1z m306 -29 c36 -49 4 -75 -92 -75 -96 0 -118 10 -108 53 3 18 9 36 11 41 3 4 44 6 91 4 68 -4 87 -8 98 -23z m162 9 c15 -10 22 -24 20 -37 -3 -19 -9 -22 -53 -22 -45 0 -50 2 -53 24 -7 45 44 65 86 35z m2031 -370 c222 -30 409 -58 414 -61 11 -7 2 -117 -16 -188 l-13 -50 -56 -3 c-61 -3 -225 27 -322 59 -33 12 -151 65 -261 118 -152 74 -208 106 -232 135 -18 20 -33 41 -33 47 0 13 -1 13 519 -57z m2705 -3223 c8 -13 32 -224 55 -496 12 -126 39 -426 61 -665 22 -239 58 -631 80 -870 22 -239 49 -531 60 -649 11 -118 20 -218 20 -223 0 -4 -11 -8 -24 -8 -31 0 -507 68 -512 73 -2 2 -9 350 -14 773 -6 423 -15 1041 -20 1373 -5 333 -7 607 -4 610 6 7 262 88 281 90 6 1 14 -3 17 -8z m-1247 -65 c2 -1 -2 -65 -7 -142 -5 -76 -14 -236 -20 -354 -6 -118 -24 -478 -40 -800 -16 -322 -37 -742 -45 -935 -9 -192 -18 -374 -21 -404 l-6 -53 -111 -53 c-124 -59 -162 -72 -171 -57 -22 36 -51 352 -66 712 -5 124 -18 288 -29 365 -47 325 -48 296 29 895 44 345 48 369 82 430 45 82 216 330 256 372 33 35 36 36 91 31 31 -3 57 -7 58 -7z m509 -39 c5 -5 17 -663 34 -1866 6 -415 14 -767 17 -783 5 -26 3 -28 -23 -28 -34 0 -271 54 -280 63 -7 6 5 283 26 672 6 94 17 314 25 490 29 606 76 1449 82 1458 5 9 110 4 119 -6z m-3 -2948 l37 -10 0 -144 c0 -79 -4 -146 -8 -149 -5 -3 -76 4 -158 14 -82 11 -151 20 -153 20 -6 0 8 260 15 286 5 20 7 20 117 7 62 -8 129 -18 150 -24z m-683 -113 c0 -96 -6 -101 -101 -87 -85 14 -109 25 -109 51 0 15 21 29 83 58 84 40 106 50 120 51 4 1 7 -32 7 -73z m1322 18 c49 -9 85 -20 82 -25 -10 -17 -206 -110 -220 -105 -10 4 -14 25 -14 76 l0 70 33 0 c17 0 71 -7 119 -16z m-1360 -453 l27 -10 -5 -93 c-8 -152 -15 -165 -52 -99 -12 21 -29 45 -38 52 -26 21 -54 90 -54 133 l0 39 48 -6 c26 -3 59 -10 74 -16z m-592 -163 c26 -59 34 -147 25 -274 -6 -94 -10 -110 -31 -131 -13 -12 -35 -23 -49 -23 -23 0 -25 4 -25 43 0 73 46 427 56 427 3 0 14 -19 24 -42z"/>
  </g>
  <g id="XMLID_105_" transform="matrix(0.206865, 0, 0, 0.221809, 303.176453, 373.485901)" style="">
    <path id="XMLID_109_" d="M178.119,164.886c14.811,1.093,14.468,1.068,39.286,2.899l43.727-13.856l38.776,51.818h-27.198 c-0.155,5.164-1.393,10.1-3.65,14.662h28.156c4.328,11.392,15.34,19.49,28.25,19.49h57.548c16.688,0,30.216-13.528,30.216-30.216 c0-2.17-1.759-3.929-3.929-3.929l-89.75-0.007l-43.894-58.657c5.116-5.024,7.303-12.663,4.989-19.965 c-3.279-10.35-14.327-16.083-24.677-12.801l-3.905,1.238l-5.117-6.838c-2.604-3.477-7.53-4.184-11.008-1.584 c-3.476,2.603-4.186,7.53-1.584,11.007l1.831,2.447l-31.651,10.03l-39.613-22.196c-4.604-8.763-13.788-14.742-24.374-14.742h-49.08 c-15.2,0-27.522,12.322-27.522,27.522v64.004l0,0h46.611c0-16.344,0-17.28,0-28.192l-2.425-8.363l33.758,59.949 c3.156,5.602,8.965,9.463,15.683,9.959l78.326,5.78c10.87,0.799,20.258-7.404,21.051-18.158 c0.778-10.538-7.101-20.235-18.158-21.051l-67.814-5.004l-30.571-54.288C170.703,157.207,167.865,154.27,178.119,164.886z"/>
    <path id="XMLID_987_" d="M372.231,136.142c-0.182,1.238,0.279,2.479,1.128,3.038c0.849,0.56,1.879,0.302,2.524-0.631 c4.864-7.037,9.861-17.065,7.333-26.189c-3.824-13.802-7.603-19.918-5.87-30.334c0.113-0.68-0.14-1.37-0.612-1.669 c-0.472-0.299-1.041-0.13-1.374,0.41c-3.223,5.229-7.374,14.495-6.205,26.311C370.485,120.526,373.509,127.447,372.231,136.142z" style="fill: rgb(47, 85, 212);"/>
    <path id="XMLID_988_" d="M343.902,186.949c-0.182,1.238,0.279,2.479,1.128,3.039s1.88,0.301,2.524-0.631 c4.865-7.037,9.861-17.065,7.333-26.189c-3.824-13.802-7.603-19.919-5.87-30.335c0.113-0.68-0.14-1.37-0.612-1.669 c-0.472-0.299-1.041-0.13-1.374,0.41c-3.223,5.229-7.374,14.495-6.205,26.311C342.155,171.333,345.179,178.254,343.902,186.949z" style="fill: rgb(47, 85, 212);"/>
    <path id="XMLID_991_" d="M424.768,256.165H284.725c-8.685,0-15.727,7.042-15.727,15.727s7.042,15.727,15.726,15.727v164.653 c0,3.323,2.694,6.017,6.017,6.017h128.009c3.323,0,6.017-2.694,6.017-6.017V287.619c8.685,0,15.727-7.042,15.727-15.727 S433.453,256.165,424.768,256.165z"/>
    <path id="XMLID_992_" d="M188.553,314.784H138.3l5.285,14.41L121.83,431.925c-2.699,12.745,5.445,25.265,18.191,27.965 c12.746,2.699,25.265-5.447,27.965-18.191l23.162-109.37C192.742,324.8,190.41,319.849,188.553,314.784z"/>
    <path id="XMLID_993_" d="M63.945,232.869c0,36.841,0.587,15.227-2.941,99.56l-39.306,95.396 c-4.963,12.046,0.78,25.834,12.824,30.798c12.051,4.963,25.835-0.783,30.798-12.824l40.889-99.242 c1.047-2.544,1.643-5.252,1.758-8.001c3.102-74.138,2.588-51.871,2.588-105.687H63.945L63.945,232.869z"/>
    <circle id="XMLID_994_" cx="116.221" cy="40.741" r="40.741"/>
    <path id="XMLID_995_" d="M181.106,236.067l-24.692-1.822c-16.86-1.245-27.491-13.897-29.629-21.263l-4.023-13.873H63.945v19.858 h60.512v74.965c0,3.839,3.112,6.95,6.951,6.95h61.354c2.228,0,4.321-1.068,5.628-2.872s1.67-4.126,0.976-6.243L181.106,236.067z"/>
  </g>
  <g transform="matrix(0.210545, 0, 0, 0.18103, 55.78503, 388.035645)" style="">
    <g>
      <path d="M218.726,213.217l-37.158-67.334l53.19,10.224c15.555,2.987,26.458-15.097,16.528-27.455l-54.959-68.393 c-5.173-6.437-14.057-8.133-21.121-4.486c3.047,10.666,2.733,21.81-0.539,32.032l20.895,26.004l-29.69-5.707 c0.084,4.789-0.889,9.726-3.112,14.51c-6.116,12.06-44.089,86.944-49.443,97.503l36.21-109.614 c2.958-8.951-1.903-18.605-10.854-21.562c-8.951-2.957-18.604,1.902-21.562,10.854l-19.843,60.07l2.719-35.353l-20.76,10.789 c-11.462,5.957-17.744,18.626-15.567,31.358c4.915,28.751,11.02,64.446,11.406,66.728c1.307,7.734,7.715,13.583,15.538,14.178 c7.838,0.59,15.053-4.253,17.503-11.666l1.786-5.406l24.077,46.587v212.165c0,12.569,10.19,22.759,22.76,22.759 s22.76-10.19,22.76-22.759V269.663c0,0,12.048-3.006,127.391-30.999v-46.84L218.726,213.217z"/>
    </g>
  </g>
  <g transform="matrix(0.210545, 0, 0, 0.18103, 55.78503, 388.035645)" style="">
    <g>
      <path d="M156.655,51.865c-10.541-19.101-34.569-26.039-53.669-15.499c-19.099,10.54-26.038,34.569-15.498,53.669 c3.321,6.017,7.992,10.811,13.416,14.248l0.436-2.132c3.617-17.638,20.846-29.004,38.484-25.388 c7.388,1.515,13.622,5.401,18.145,10.663C163.007,76.429,162.949,63.269,156.655,51.865z" style="fill: rgb(47, 85, 212);"/>
    </g>
  </g>
  <g transform="matrix(0.210545, 0, 0, 0.18103, 55.78503, 388.035645)" style="">
    <g>
      <path d="M425.47,57.82h-23.994V36.795V0h-26.282v36.795V57.82h-23.993c-12.868,0-23.3,10.431-23.3,23.3v295.057 c0,12.868,10.431,23.3,23.3,23.3h74.269c12.868,0,23.3-10.431,23.3-23.3V81.12C448.77,68.252,438.338,57.82,425.47,57.82z" style=""/>
    </g>
  </g>
  <g id="XMLID_13_" transform="matrix(0.234302, 0, 0, 0.227418, -3.469479, 85.331284)" style="">
    <path id="XMLID_14_" d="M136.854,317.214v120.721c0,12.478,10.115,22.593,22.593,22.593c12.478,0,22.593-10.115,22.593-22.593 V330.176c-0.616,0.016-1.232,0.036-1.852,0.036C165.326,330.212,150.33,325.583,136.854,317.214z"/>
    <path id="XMLID_2123_" d="M274.2,332.125c-0.162-3.442-1.109-6.802-2.769-9.822l-28.302-51.485 c-1.58,19.03-10.047,35.465-23.898,46.316c-0.513,0.402-1.037,0.786-1.561,1.17l11.64,21.176l4.682,99.518 c0.569,12.102,10.561,21.531,22.55,21.531c0.358,0,0.718-0.008,1.08-0.025c12.463-0.586,22.092-11.166,21.506-23.63L274.2,332.125z " style=""/>
    <circle id="XMLID_2124_" cx="186.912" cy="39.02" r="39.02" style="fill: rgb(47, 85, 212);"/>
    <path id="XMLID_2125_" d="M326.963,163.113l-35.661,27.938c0.163,0.602,0.313,1.203,0.459,1.804l54.34-27.627 C339.437,166.854,332.673,165.948,326.963,163.113z"/>
    <path id="XMLID_2126_" d="M366.239,116.996l-3.696-4.718l1.837-1.439c5.435-4.257,6.388-12.114,2.131-17.549 c-0.005-0.007-0.012-0.013-0.017-0.02c-4.213-5.355-12.079-6.383-17.532-2.111l-1.837,1.439c-2.456-3.135-7.984-12.72-16.955-6.972 c-4.987,3.198-6.108,9.963-2.485,14.589l3.696,4.718l-3.148,2.466c-5.694-7.268-2.902-3.705-3.723-4.748 c-3.435-4.348-9.731-5.029-14.013-1.675c-4.365,3.42-5.067,9.747-1.705,14.039l3.696,4.718l-58.184,45.584 c-0.022-0.019-0.045-0.036-0.067-0.055c-19.066-16.188-46.35-18.339-59.416,1.527c-3.339,5.077-4.513,12.392-13.874,18.08 l15.196,10.731c2.314,1.634,4.398,3.506,6.243,5.565c0.109-0.09,0.206-0.188,0.318-0.276c7.095-5.559,17.353-4.313,22.911,2.782 c5.559,7.095,4.313,17.353-2.782,22.911c-3.342,2.618-7.384,3.709-11.308,3.407c-0.695,6.072-2.9,11.908-6.523,17.039 c-5.71,8.086-14.409,13.466-24.021,15.091l3.814,4.868c3.406,4.347,2.643,10.633-1.705,14.039 c-4.345,3.405-10.632,2.644-14.039-1.705l-21.928-27.99l-38.243-27.005c-3.955,20.159,3.317,41.881,16.095,58.191 c0.001,0.001,0.002,0.003,0.004,0.004c20.52,26.188,57.622,40.348,83.105,20.383c17.363-13.603,16.55-33.534,17.827-38.609 c2.595-10.314,11.125-18.623,22.265-20.408c6.817-1.092,13.102-4.195,18.014-9.321c12.343-12.881,11.568-33.505,3.533-49.572 l58.184-45.584l3.696,4.717c3.397,4.336,9.703,5.102,14.04,1.705c4.273-3.348,5.158-9.631,1.705-14.04l-3.696-4.717l3.148-2.466 l3.696,4.718c3.398,4.337,9.685,5.116,14.039,1.705C368.942,127.581,369.59,121.274,366.239,116.996z" style="fill: rgb(47, 85, 212);"/>
    <path id="XMLID_2127_" d="M163.999,241.125c8.524,6.019,20.278,3.924,26.239-4.52c5.998-8.494,3.975-20.242-4.52-26.239 c-1.809-1.277-32.419-22.892-56.628-39.988c0.235-29.276,0.138-17.176,0.284-35.38c0.011-2.06,1.686-3.723,3.745-3.717 c2.059,0.006,3.725,1.677,3.725,3.736v18.711l23.039,16.269c0,0,6.31,0.81,6.828,0.81c3.762,0,7.142-2.241,8.61-5.71 c3.395-8.019,8.508-14.742,15.195-19.981c8.901-6.973,19.874-10.659,31.732-10.658c4.777,0,9.579,0.599,14.32,1.752 c0-2.018,1.502-3.72,3.505-3.971c2.002-0.251,3.878,1.029,4.375,2.984c0.265,1.041,0.416,2.234,0.412,3.6 c2.963,1.15,5.882,2.512,8.73,4.092l25.758-20.18c-7.066-19.848-22.798-32.258-41.8-32.258H136.275 c-24.444,0-44.431,19.887-44.554,44.274l-0.108,13.456l-0.255,31.717c-0.049,6.135,2.95,11.989,7.967,15.531 C106.455,200.49,157.032,236.205,163.999,241.125z"/>
  </g>
  <g transform="matrix(3.279183, 0, 0, 2.651976, 46.183983, 15.997423)" style="">
    <path d="M28.488,9.54c-0.2-0.118-1.117-0.219-1.117-0.219l-3.433,0.498l-1.116,0.319c0,0-0.927-2.132-1.915-2.634 c-2.914-1.476-2.833-1.835-2.833-1.835s0.762-3.521,0.838-3.87c0.075-0.352-0.357-1.875-2.274-1.796 c-1.915,0.08-2.234,1.517-2.234,1.517l-0.039,1.316c0,0-0.358,0.2-0.16,0.719c0.199,0.519,0.679,1.116,0.679,1.116l-0.08,0.72 L9.297,7.984c0,0-1.277,0.997-2.674,1.277c-1.396,0.278-2.234,1.197-2.074,2.154c0.159,0.958,1.675,1.716,1.675,1.716 s0.041,1.803,0.147,3.165c0.105,1.364,1.271,2.266,1.449,2.421c0.178,0.154,1.557,0.6,1.557,0.6s1.476,0.079,2.313-0.68 c0.399,1.037,1.118,1.117,1.197,1.676c0.08,0.56-0.358,0.958,0.039,1.356c0.4,0.399,1.637,2.155,1.637,2.634 c0,0.479-0.519,6.703-0.519,6.703h0.719l0.559-1.994l0.117-0.194l0.241,1.271c0,0,0.28,1.077,1.517,1.157s1.436,0.024,1.754,0 c0.32-0.025-1.195-2.913-1.235-3.232c-0.039-0.318,0.638,0.319,0.519-0.277c-0.031-0.152-0.114-0.548-0.225-1.06h1.142l0.438,3.012 h0.638l-0.704-3.012h0.123l0.661,2.255l-0.04-1.795l-0.095-0.46h0.498v-0.418h-0.583l-1.041-5.076c0,0,0.662-0.07,1.341,0.447 c0.678,0.52,0.117,7.975,0.117,7.975s-0.519,2.439-0.077,2.557c0.438,0.115,0.98,0.226,0.98,0.226s0.323,0.158,1.027,0.502 c0.705,0.347,2.698,0.273,2.646-0.178c-0.053-0.448-0.671-0.913-0.671-0.913l-1.443-1.101L22.7,29.371c0,0,1.315,0.358,1.316-0.279 c0.002-0.639,0.086-2.037,0.156-3.312s0.682-4.55,0.682-5.985s-0.519-1.876-0.519-1.876l-1.517-1.196h0.639c0,0,1.717-0.52,0-5.107 l0.479-0.279l0.479,0.319l3.191-0.398l0.297-0.49l0.582-0.148C28.488,10.618,28.688,9.66,28.488,9.54z M9.548,10.167 c0.932-0.015,2.075,0.77,2.541,0.744c0.465-0.026,0.81-0.648,1.634-0.915c0.825-0.266,1.451-0.109,1.931,0.276 c0.478,0.387,0.478,1.516,0.478,1.516l-1.915,0.439c0,0-0.439-0.493-1.184-0.399c-0.745,0.094-1.236,0.784-1.236,0.784 s-0.469-0.604-0.824-0.784c-0.355-0.179-1.783-0.931-2.262-0.917c-0.479,0.015-0.745-0.146-0.679-0.346 C8.099,10.366,8.617,10.18,9.548,10.167z M14.828,16.325c-1.45,0.504-1.782-0.108-2.434,0.105c-0.652,0.213-1.331,1.809-2.98,2.206 c-1.648,0.399-2.526-1.274-2.744-2.084c-0.207-0.774-0.208-3.422-0.208-3.422s1.689-0.28,1.876-0.239 c0.186,0.04,0.558,0.957,0.558,0.957l0.146,2.795l0.653-0.09l0.119-1.706c0,0,1.21,0.277,1.476,0.199 c0.267-0.079,0.599-0.52,0.599-0.52s0.281,0.652,1.198,0.561c0.918-0.094,1.264-1.011,1.264-1.011l1.954-0.533 C16.304,13.544,16.278,15.819,14.828,16.325z M17.918,26.26c-0.325-1.51-0.789-3.64-0.883-4.071 c-0.137-0.634-0.558-1.516,0.358-1.556c0.919-0.039,0.923,0.309,0.923,0.309l0.774,5.318H17.918z M19.525,26.26h-0.099 l-0.389-1.659L19.525,26.26z"/>
  </g>
  <g transform="matrix(0.161295, 0, 0, 0.134388, 227.118729, 236.975098)" style="">
    <path d="M167.7,32.885H17.958C8.04,32.885,0,40.925,0,50.844v115.861c0,9.919,8.04,17.959,17.958,17.959H46.1l-31.172,67.463 c-3.476,7.521-0.196,16.434,7.324,19.908c7.524,3.476,16.435,0.194,19.908-7.324l36.987-80.047h27.366l36.987,80.047 c2.533,5.483,7.958,8.712,13.626,8.712c2.105,0,4.245-0.446,6.282-1.388c7.521-3.475,10.8-12.388,7.324-19.908l-31.173-67.463 h28.14c9.919,0,17.959-8.04,17.959-17.959V50.844C185.659,40.925,177.619,32.885,167.7,32.885z"/>
    <path d="M283.458,21.277c-5.357-3.258-12.026-3.485-17.594-0.601l-51.104,26.484c-5.108,2.648-8.315,7.922-8.315,13.676v95.875 c0,5.754,3.207,11.028,8.315,13.676l51.104,26.484c5.567,2.885,12.236,2.657,17.594-0.6c5.357-3.258,8.628-9.074,8.628-15.345 V36.622C292.086,30.351,288.815,24.535,283.458,21.277z"/>
  </g>
  <g transform="matrix(0.316833, 0, 0, 0.320834, 407.225861, 364.6362)" style="">
    <path d="M253.347,153.549c-0.788-2.558-3.671-7.071-6.661-9.54l3.411-1.049c1.52-0.467,2.374-2.079,1.906-3.599l-12.625-41.057 c-1.014,1.901-2.312,3.689-3.911,5.292l-12.195,12.227l9.095,29.576c0.467,1.52,2.079,2.374,3.599,1.906l3.413-1.049 c-1.086,3.723-0.937,9.075-0.151,11.632c1.199,3.899,5.332,6.088,9.231,4.889C252.355,161.58,254.545,157.444,253.347,153.549z" style="fill: rgb(47, 85, 212);"/>
    <path d="M211.283,54.882l-3.414,1.05c-1.52,0.468-2.374,2.079-1.906,3.599l2.623,8.529c3.312-1.853,7.052-2.852,10.952-2.853h0.002 c3.702,0,7.266,0.895,10.452,2.571l-4.393-14.285c-0.467-1.52-2.079-2.374-3.599-1.906l-3.412,1.049 c1.087-3.723,0.937-9.078,0.149-11.636c-1.196-3.898-5.329-6.087-9.228-4.888c-3.895,1.198-6.085,5.333-4.888,9.229 C205.408,47.899,208.292,52.413,211.283,54.882z" style="fill: rgb(47, 85, 212);"/>
    <path d="M110.826,60.07c1.903,10.88,3.102,17.729,4.964,28.374h18.076c1.887-10.787,3.045-17.409,4.963-28.374 C135.882,60.07,113.754,60.07,110.826,60.07z"/>
    <path d="M228.388,96.534c4.875-4.888,4.864-12.802-0.023-17.678c-4.815-4.802-12.745-4.922-17.678,0.023l0,0l-21.239,21.294 c0,0-1.223-9.439-1.579-12.578c-1.732-15.282-13.915-27.526-29.503-27.526h-9.386c-4.796,27.417-0.547,3.127-5.385,30.782 l14.059,56.581h0.06v-57.79c0-1.442,1.167-2.612,2.609-2.616c1.442-0.004,2.335,1.226,2.534,2.656 c0.682,4.909,0.1,0.723,5.108,38.929c0.55,4.187,3.157,7.68,6.681,9.489c4.839,2.487,10.734,1.549,14.563-2.289l0.001-0.001 C193.143,131.869,223.474,101.461,228.388,96.534z"/>
    <path d="M91.511,299.759c0,8.284,6.716,15,15,15s15-6.716,15-15v-90.148h-30V299.759z"/>
    <path d="M127.987,209.611v90.148c0,8.284,6.716,15,15,15c8.284,0,15-6.716,15-15v-90.148h-0.272H127.987z"/>
    <path d="M91.566,147.434l14.433-56.932c-4.408-25.195-2.529-14.455-5.324-30.431h-9.549c-16.229,0-29.498,13.203-29.581,29.434 l-0.461,91.833c-0.034,6.903,5.534,12.527,12.437,12.563c0.021,0,0.042,0,0.063,0c6.874,0,12.464-5.556,12.499-12.438l0.461-91.832 c0.007-1.368,1.12-2.472,2.487-2.468c1.367,0.004,2.473,1.114,2.473,2.481v57.791H91.566z"/>
    <circle cx="124.746" cy="25.906" r="25.906"/>
  </g>
  <g transform="matrix(0.323341, 0, 0, 0.31447, 344.276184, 263.078369)" style="">
    <path d="M186.956,116.825l3.841-2.614c1.492-0.737,3.007-0.637,3.807-0.501c0.063,0.012,2.309,0.478,3.551-0.367 c1.529-1.039,1.93-3.129,0.885-4.655c-0.595-0.876-1.526-1.366-2.503-1.446c0.285-0.934,0.171-1.984-0.421-2.853 c-1.039-1.535-3.129-1.93-4.658-0.888c-0.854,0.581-1.364,2.107-1.523,3.542c-0.071,0.546-0.433,2.42-1.939,3.778l-3.684,2.511 c-2.875-0.783-7.892,0.043-12.528,1.668c5.01,0.725,10.005,2.199,14.883,4.392C186.878,118.471,186.997,117.601,186.956,116.825z"/>
    <path d="M153.953,159.35h5.988c-3.382-5.437-3.934-12.074-1.479-18.35c2.074-5.303,6.098-10.097,11.634-13.862 c0.903-0.615,1.876-1.206,2.898-1.773c-1.346-0.282-2.714-0.509-4.107-0.66c-2.787-0.303-5.522-0.462-8.167-0.462 c-16.266,0-29.143,5.883-30.199,21.414l8.351,1.903C145.666,149.109,151.034,153.583,153.953,159.35z"/>
    <path d="M211.543,159.49c2.787,0,5.046-2.259,5.046-5.046c0-4.407-2.546-8.31-6.364-10.164c-1.674,4.018-4.107,7.975-6.874,11.406 c-1.054,1.307-2.152,2.537-3.277,3.664h3.277v0.14H211.543z"/>
    <path d="M196.131,128.949c-6.031,0-15.098,2.841-20.41,6.456c-7.707,5.242-11.129,13.051-7.069,19.018 c2.102,3.09,5.574,4.59,9.503,4.59c3.658,0,7.713-1.3,11.429-3.827c6.605-4.498,13.302-15.388,12.991-21.649l4.641-3.154 c1.141-0.565,2.292-0.727,3.227-0.727c0.545,0,1.016,0.055,1.371,0.118c0.042,0.008,0.817,0.169,1.762,0.169 c0.844,0,1.824-0.129,2.535-0.613c1.845-1.258,2.326-3.778,1.073-5.631c-0.723-1.054-1.851-1.646-3.029-1.74 c0.342-1.13,0.211-2.397-0.51-3.453c-0.785-1.154-2.059-1.774-3.355-1.774c-0.786,0-1.579,0.228-2.277,0.703 c-1.031,0.7-1.646,2.551-1.842,4.282c-0.083,0.655-0.521,2.921-2.341,4.57l-4.455,3.032 C198.457,129.066,197.357,128.949,196.131,128.949z"/>
    <circle cx="91.039" cy="52.321" r="27.59" style="fill: rgb(47, 85, 212);"/>
    <path d="M215.197,179.35c2.762,0,5-2.238,5-5s-2.238-5-5-5c-28.955,0-39.387,0-68.837,0c-0.063-5.648-3.961-10.73-9.711-12.04 l-42.158-9.607l-12.512-32.992l12.406,18.279l5.08-13.305c3.672-9.616-1.147-20.388-10.764-24.06l-31.05-11.856 c-9.616-3.672-20.388,1.147-24.06,10.763L1.569,178.402c-0.441,0.886-1.536,5.674-1.536,5.674 c-0.359,5.475,2.294,10.947,7.345,13.921l33.527,19.736l-25.954,31.741c-5.244,6.413-4.296,15.863,2.117,21.107 c6.415,5.244,15.865,4.295,21.107-2.117l16.088-19.675l8.6-36.321l-22.42-9.67l30.592,7.705l-10.656,45.01 c-1.908,8.062,3.079,16.144,11.141,18.053c8.045,1.907,16.141-3.067,18.053-11.141l14.063-59.399 c1.89-7.98-0.938-16.842-10.272-19.342c-18.586-4.613-16.41-4.08-17.411-4.308c-6.437-1.467-10.999-6.813-11.812-12.996 l-5.537-42.803l14.888,39.257c1.484,3.914,4.829,6.825,8.91,7.755l48.692,11.097c3.723,0.848,7.531-0.047,10.466-2.335 C156.858,179.35,199.911,179.35,215.197,179.35z"/>
    <path d="M291.334,124.243H247.06c-4.067,0-7.363,3.297-7.363,7.363v4.853c-0.927-0.376-1.938-0.587-3-0.587c-4.418,0-8,3.582-8,8 v7.554c0,4.418,3.582,8,8,8c1.062,0,2.073-0.211,3-0.587v63.768l-87.885-22.769c-5.348-1.384-10.804,1.827-12.188,7.173 c-1.385,5.346,1.826,10.803,7.173,12.188l8.146,2.11l-1.477,6.236c-1.271,5.374,2.054,10.763,7.428,12.035 c5.396,1.273,10.766-2.07,12.035-7.428l1.379-5.826l65.389,16.941v21.218c0,4.067,3.297,7.363,7.363,7.363h44.273 c4.067,0,7.363-3.297,7.363-7.363v-132.88C298.697,127.54,295.4,124.243,291.334,124.243z"/>
    <g transform="matrix(0.548283, 0, 0, 0.518986, -117.064018, -792.860718)" style="">
      <g>
        <path d="M186.928,284.884v153.361c0,8.004,6.489,14.493,14.493,14.493c8.004,0,14.493-6.489,14.493-14.493V284.884H186.928z"/>
      </g>
    </g>
    <g transform="matrix(0.548283, 0, 0, 0.518986, -117.064018, -792.860718)" style="">
      <g>
        <path d="M384.79,284.884v153.361h0.001c0,8.004,6.489,14.493,14.493,14.493s14.493-6.489,14.493-14.493V284.884H384.79z"/>
      </g>
    </g>
    <g transform="matrix(0.548283, 0, 0, 0.518986, -117.064018, -792.860718)" style="">
      <g>
        <path d="M306.542,284.884v174.822h-0.001c0,15.256,12.367,27.624,27.624,27.624c15.257,0,27.624-12.367,27.624-27.624V284.884 H306.542z"/>
      </g>
    </g>
    <g transform="matrix(0.548283, 0, 0, 0.518986, -117.064018, -792.860718)" style="">
      <g>
        <path d="M239.368,284.884v174.822c0,15.256,12.367,27.624,27.624,27.624c15.256,0,27.624-12.367,27.624-27.624V284.884H239.368z"/>
      </g>
    </g>
    <g transform="matrix(0.548283, 0, 0, 0.518986, -117.064018, -792.860718)" style="">
      <g>
        <path d="M300.583,3.462c-26.348,0-47.708,21.359-47.708,47.708c0,18.576,10.622,34.659,26.116,42.539 c4.458-9.878,12.532-18.149,23.337-22.616c13.578-5.616,28.35-3.939,39.981,3.21c3.807-6.853,5.983-14.737,5.983-23.133 C348.291,24.821,326.931,3.462,300.583,3.462z" style="fill: rgb(47, 85, 212);"/>
      </g>
    </g>
    <g transform="matrix(0.548283, 0, 0, 0.518986, -117.064018, -792.860718)" style="">
      <g>
        <path d="M511.426,247.916c-0.951-6.88-6.818-11.973-13.763-11.973c-32.189,0-118.013,0-126.48,0 c6.658-2.973,11.672-9.016,13.178-16.45c2.16-10.661,15.754-77.767,17.959-88.647c0-0.001,0-0.002,0.001-0.004 c2.785-13.752-0.713-27.869-9.595-38.731c-7.894-9.653-19.153-15.636-31.41-16.85c-1.599,4.018-3.584,7.84-5.913,11.422 c0.02,0.029,0.041,0.057,0.061,0.086l-1.256,49.453l0.061-0.069l-0.043,0.212l-13.771-33.304 c-4.858-11.749-18.32-17.336-30.068-12.476c-11.748,4.858-17.334,18.32-12.476,30.068l42.616,103.065 c2.313,5.594,6.655,9.88,11.923,12.225H323.05c-1.615-2.986-1.303-2.448-8.727-20.401c-0.103,7.38-2.005,14.323-5.306,20.401 h-29.434c8.048-3.587,13.666-11.641,13.666-21.021c0-12.714-10.306-23.02-23.02-23.02h-54.708 c3.034-11.747,12.503-48.422,15.345-59.426c1.231-4.77,4.645-8.508,9.001-10.284v48.62h17.572l-9.651-23.347 c-2.261-5.468,0.34-11.731,5.807-13.992c5.468-2.261,11.731,0.34,13.992,5.807l13.574,32.839c0.009,0.022,0.014,0.045,0.023,0.066 c7.589,1.941,14.383,5.854,19.821,11.154l-22.588-54.628c-2.18-5.273-3.426-11.292-3.351-17.376 c-16.01-6.815-28.747-19.847-35.204-36.04c-25.487,2.387-47.073,20.49-53.575,45.67c-13.965,54.083-8.836,34.221-22.776,88.201 c-2.8,10.845,2.606,22.18,12.927,26.776c-7.214,0-58.743,0-65.729,0c4.384-1.109,7.633-5.068,7.633-9.798 c0-5.587-4.53-10.117-10.117-10.117H81.398l-43.039-87.073l72.619-65.606c-0.103,8.339,1.013,16.64,3.205,23.761 c1.071,3.477,4.947,5.206,8.238,3.705l17.652-8.057c4.205,9.213,15.083,13.274,24.296,9.068 c9.213-4.204,13.274-15.082,9.068-24.296l17.651-8.056c3.282-1.499,4.52-5.571,2.6-8.651 c-12.039-19.303-33.835-37.308-58.347-33.47c-3.229,0.737-5.668,1.835-7.698,3.669L19.118,119.07 c-3.359,3.035-4.294,7.932-2.287,11.99l41.998,84.967H44.61c-5.587,0-10.117,4.529-10.117,10.117c0,4.729,3.249,8.688,7.633,9.798 H13.96C6.25,235.943,0,242.193,0,249.902c0,7.71,6.25,13.96,13.96,13.96h15.027v223.253c0,11.833,9.592,21.425,21.425,21.425 s21.425-9.592,21.425-21.425V263.862c9.542,0,337.385,0,367.358,0v223.253c0,11.833,9.592,21.425,21.425,21.425 c11.833,0,21.425-9.592,21.425-21.425V263.862h13.702c7.745,0,16.255-4.048,16.255-11.794L511.426,247.916z"/>
      </g>
    </g>
    <g transform="matrix(2.221202, 0, 0, 2.0898, 164.881363, -629.136169)" style="">
      <g>
        <path d="M106.727,77.498l-0.779-23.531c-0.166-5.694-4.916-10.176-10.61-10.012c-4.595,0.134-8.396,3.253-9.608,7.444 l-6.904,9.452l-13.678-0.214c-2.283-0.016-4.21,1.807-4.246,4.118c-0.032,1.974,1.315,3.64,3.147,4.106H8.252 c-1.49,0-2.699,1.211-2.699,2.699c0,1.489,1.209,2.699,2.699,2.699h2.626c-0.755,1.418-1.188,3.034-1.188,4.75v33.348 c0,5.597,4.553,10.149,10.15,10.149c1.489,0,2.698-1.21,2.698-2.698s-1.209-2.701-2.698-2.701c-2.621,0-4.75-2.131-4.75-4.75 V79.011c0-2.62,2.129-4.75,4.75-4.75h32.779c2.618,0,4.75,2.13,4.75,4.75v33.349c0,2.619-2.132,4.75-4.75,4.75 c-1.489,0-2.699,1.211-2.699,2.699c0,1.489,1.21,2.699,2.699,2.699c5.595,0,10.146-4.553,10.146-10.148V79.011 c0-1.717-0.431-3.332-1.186-4.75h9.549c1.488,0,2.699-1.21,2.699-2.698c0-1.088-0.648-2.02-1.576-2.447l8.604,0.134h0.065 c1.334,0,2.589-0.636,3.377-1.716l1.41-1.93l0.37,10.537l-7.401,0.225c-2.978,0.091-5.413,2.404-5.655,5.373l-1.502,18.314 c-0.025,0.159-0.05,0.319-0.062,0.483l-0.393,5.048l-0.639,7.786c-0.002,0.009,0,0.018-0.002,0.026c0,0,0.012,0.002,0.034,0.004 l-0.138,1.762c-0.248,3.193,2.141,5.982,5.334,6.23c0.152,0.012,0.304,0.019,0.455,0.019c2.998,0,5.539-2.312,5.775-5.353 l2.377-28.146l16.727-0.509c3.232-0.099,5.773-2.797,5.677-6.029C106.654,80.902,106.754,78.395,106.727,77.498z"/>
        <path d="M116.916,79.246c-0.016-0.727-0.031-1.417-0.031-2.045V49.219h-6.691v27.982c0,0.671,0.016,1.41,0.033,2.189 c0.062,2.94,0.17,7.863-1.076,9.346c-1.672,1.987-6.479,1.92-10.348,1.865c-0.682-0.009-1.35-0.019-1.992-0.019H85.582v6.692 h9.602v15.696h-3.132c-3.55,0-6.44,2.89-6.44,6.44h5.021c0-0.783,0.638-1.422,1.421-1.422h12.864c0.782,0,1.421,0.639,1.421,1.422 h5.02c0-3.551-2.891-6.44-6.439-6.44h-3.04V97.306c4.537-0.071,9.396-0.696,12.396-4.263 C117.141,89.629,117.018,83.872,116.916,79.246z"/>
        <polygon points="60.303,67.076 60.361,63.732 42.525,63.418 39.12,42.013 35.817,42.54 39.66,66.714 &#9;&#9;"/>
        <path d="M54.538,33.041c9.108,0,16.521-7.411,16.521-16.52C71.059,7.411,63.648,0,54.538,0s-16.52,7.411-16.52,16.521 C38.018,25.629,45.429,33.041,54.538,33.041z M41.483,14.847C42.24,8.921,46.938,4.221,52.866,3.464v1.702h3.346V3.464 C62.14,4.22,66.84,8.921,67.595,14.847h-1.702v3.346h1.702c-0.755,5.926-5.455,10.626-11.383,11.383v-2.038h-3.346v2.038 c-5.928-0.757-10.626-5.458-11.383-11.383h1.702v-3.346H41.483z" style="fill: rgb(47, 85, 212);"/>
        <polygon points="62.842,15.684 55.375,15.684 55.375,7.389 53.703,7.389 53.703,17.357 62.842,17.357 &#9;&#9;"/>
        <circle cx="90.41" cy="33.041" r="10.86"/>
      </g>
    </g>
    <path d="M 140.165 -336.285 C 140.165 -333.23 137.614 -330.751 134.466 -330.751 L 115.682 -330.751 L 115.682 -234.797 C 115.682 -231.739 113.13 -229.261 109.982 -229.261 L 43.717 -229.261 C 40.568 -229.261 38.017 -231.739 38.017 -234.797 L 38.017 -330.751 L -3.127 -330.751 C -6.275 -330.751 -8.826 -333.23 -8.826 -336.285 C -8.826 -337.575 -8.354 -338.744 -7.593 -339.684 L -25.294 -354.052 C -25.461 -354.189 -25.623 -354.336 -25.774 -354.49 C -26.075 -354.799 -26.425 -354.948 -26.842 -354.948 C -27.024 -354.948 -27.951 -354.902 -28.284 -353.964 C -28.303 -353.914 -28.321 -353.865 -28.34 -353.816 L -42.535 -317.449 C -43.034 -315.986 -42.795 -314.431 -41.872 -313.173 C -40.938 -311.897 -39.475 -311.165 -37.861 -311.165 L -12.052 -311.165 C -3.663 -311.165 3.585 -305.085 4.806 -297.025 L 14.166 -242.287 C 14.719 -238.643 13.645 -235.058 11.234 -232.346 C 8.824 -229.636 5.326 -228.08 1.639 -228.08 C -4.559 -228.08 -9.815 -232.388 -10.859 -238.321 L -18.909 -279.621 C -19.39 -282.361 -21.728 -284.278 -24.487 -284.278 L -41.378 -284.278 L -41.378 -234.795 C -41.378 -231.738 -43.929 -229.259 -47.076 -229.259 L -95.912 -229.259 C -99.06 -229.259 -101.611 -231.738 -101.611 -234.795 L -101.611 -285.62 L -110.525 -351.793 C -110.933 -354.824 -108.735 -357.602 -105.613 -357.998 C -102.489 -358.396 -99.63 -356.259 -99.222 -353.228 L -91.267 -294.171 L -81.44 -294.171 C -82.279 -296.101 -82.744 -298.219 -82.744 -300.44 C -82.744 -302.198 -82.451 -303.933 -81.875 -305.595 L -57.793 -371.733 C -55.542 -378.335 -50.295 -383.398 -43.783 -385.721 C -50.559 -391.204 -54.88 -399.456 -54.88 -408.67 C -54.88 -425.137 -41.087 -438.533 -24.132 -438.533 C -7.178 -438.533 6.618 -425.137 6.618 -408.67 C 6.618 -395.876 -1.712 -384.941 -13.377 -380.697 L 8.336 -362.233 L 38.549 -360.021 C 39.1 -359.98 39.645 -359.861 40.16 -359.67 C 44.828 -357.932 47.966 -353.502 47.966 -348.647 C 47.966 -346.101 47.127 -343.749 45.714 -341.82 L 71.163 -341.82 C 69.229 -342.714 67.885 -344.613 67.885 -346.831 L 67.885 -346.944 C 67.885 -350.018 70.45 -352.51 73.614 -352.51 L 121.55 -352.51 C 124.714 -352.51 127.28 -350.018 127.28 -346.944 L 127.28 -346.831 C 127.28 -344.613 125.933 -342.714 124.001 -341.82 L 134.468 -341.82 C 137.613 -341.82 140.165 -339.343 140.165 -336.285 Z M 83.21 -367.463 C 80.2 -367.463 77.762 -365.094 77.762 -362.17 L 77.762 -362.063 C 77.762 -359.14 80.2 -356.772 83.21 -356.772 L 131.709 -356.772 C 134.719 -356.772 137.158 -359.14 137.158 -362.063 L 137.158 -362.17 C 137.158 -365.094 134.719 -367.463 131.709 -367.463 L 83.21 -367.463 Z M 77.147 -386.222 L 102.793 -386.222 C 105.465 -386.222 107.63 -388.325 107.63 -390.919 L 107.63 -391.015 C 107.63 -393.609 105.463 -395.711 102.793 -395.711 L 77.147 -395.711 C 74.475 -395.711 72.31 -393.608 72.31 -391.015 L 72.31 -390.919 C 72.31 -388.325 74.475 -386.222 77.147 -386.222 Z M 76.63 -372.583 L 130.113 -372.583 C 132.498 -372.583 134.432 -374.461 134.432 -376.779 L 134.432 -376.864 C 134.432 -379.181 132.498 -381.06 130.113 -381.06 L 76.63 -381.06 C 74.245 -381.06 72.31 -379.181 72.31 -376.864 L 72.31 -376.779 C 72.31 -374.46 74.245 -372.583 76.63 -372.583 Z" style=""/>
  </g>
  <g id="XMLID_908_" transform="matrix(0.193537, 0, 0, 0.192508, 100.488182, 272.597412)" style="">
    <path id="XMLID_917_" d="M447.76,390.631l-43.254-24.867l12.112,29.331c4.054,9.817,3.823,20.331,0.185,29.478 c8.787,5.052,12.49,7.932,19.758,7.932c7.765,0,15.316-4.038,19.464-11.252C462.199,410.514,458.498,396.805,447.76,390.631z" style="fill: rgb(47, 85, 212);"/>
    <path id="XMLID_932_" d="M348.56,274.349c-1.866-4.519-5.158-8.305-9.375-10.78c-12.629-7.414-56.577-31.856-56.577-31.856 L141.864,170.53l45.109-44.705c0.683-0.677,1.308-1.411,1.865-2.196l50.201-70.55c5.386-7.569,3.616-18.071-3.953-23.457 c-7.57-5.385-18.071-3.616-23.457,3.953l-49.363,69.372l-51.48,51.667c-3.201,3.609-6.057,7.954-7.803,12.71l-31.827,73.047 c-1.986,5.306-2.995,10.298-1.541,18.197l33.679,155.075c1.978,9.107,10.964,14.836,20.007,12.867 c9.078-1.971,14.839-10.929,12.867-20.007l-31.163-143.489l126.118,54.95l0,0l0.071-0.102l89.967,51.724l-28.016-67.846 l-36.061-20.732l6.923-9.855c1.921,1.531-1.578-0.634,45.97,27.281l49.635,120.199c4.732,11.459,17.848,16.892,29.289,12.17 c11.449-4.729,16.897-17.841,12.17-29.29L348.56,274.349z"/>
    <circle id="XMLID_933_" cx="38.933" cy="179.972" r="38.923" style="fill: rgb(47, 85, 212);"/>
  </g>
  <path d="M 61.548 121.984 H 78.659 L 78.659 113.66 L 92.988 126.576 L 78.659 139.492 L 78.659 131.169 H 61.548 V 121.984 Z" style="fill: rgba(47, 85, 212, 0.3);" transform="matrix(-0.72029, -0.693673, 0.693673, -0.72029, 164.662323, 361.271759)" bx:shape="arrow 61.548 113.66 31.44 25.832 9.185 14.328 0 1@1d0b2af6"/>
  <path d="M 123.49 143.164 H 139.877 L 139.877 135.653 L 156.161 147.308 L 139.877 158.963 L 139.877 151.452 H 123.49 V 143.164 Z" style="fill: rgba(47, 85, 212, 0.3);" transform="matrix(0.842621, 0.538507, -0.538507, 0.842621, 267.49057, 90.461082)" bx:shape="arrow 123.49 135.653 32.671 23.31 8.288 16.284 0 1@691c1682"/>
  <path d="M 170.405 104.276 H 188.54 L 188.54 95.873 L 204.208 108.218 L 188.54 120.564 L 188.54 112.16 H 170.405 V 104.276 Z" style="paint-order: fill; fill: rgba(47, 85, 212, 0.3);" transform="matrix(0.616989, -0.786972, 0.786972, 0.616989, 95.640602, 295.828064)" bx:shape="arrow 170.405 95.873 33.803 24.691 7.884 15.668 0 1@df3636c9"/>
  <path d="M 89.221 154.05 H 103.527 L 103.527 146.06 L 119.46 158.458 L 103.527 170.857 L 103.527 162.867 H 89.221 V 154.05 Z" style="fill: rgba(47, 85, 212, 0.3);" transform="matrix(-0.743063, 0.669221, -0.669221, -0.743063, 379.433167, 342.061005)" bx:shape="arrow 89.221 146.06 30.239 24.797 8.817 15.933 0 1@56a2d3be"/>
</svg>